# xmcd
#
# Track frame offsets:
#	150
#	13320
#	25710
#	37572
#	48802
#	62727
#	80055
#	88615
#	95250
#	105437
#	120202
#	134802
#	151365
#	164605
#
# Disc length: 2396
#
# Revision: 1
# Processed by: cddbd v1.5.1PL0 Copyright (c) Steve Scherf et al.
# Submitted via: ExactAudioCopy v0.90a11
# Normalized: r0:DSETVAR1
#
DISCID=a4095a0e
DTITLE=Various Artist - Christmas Festival
DYEAR=1900
DGENRE=
TTITLE0=Roy Black - Kinderwunsch
TTITLE1=Tommy Steiner - Bald schon ist Weihnacht
TTITLE2=Andy Borg - Oh Tannenbaum
TTITLE3=Flippers - Schlittenfahrt
TTITLE4=Roger Whittaker - Stille Nacht
TTITLE5=Hanne Haller - Zünde deine Lichter an
TTITLE6=Wencke Myhre - Morgen Kinder wirds was geben
TTITLE7=Peter Alexander - Weihnachtszeit ist Lichterzeit
TTITLE8=Karel Gott - Kommet ihr Hirten
TTITLE9=Vicky Leandros - Maria durch ein Dornwald ging
TTITLE10=Ivan Rebroff - Oh du fröhliche
TTITLE11=Jose Carreras - White Christmas
TTITLE12=Freddy Quinn - Ihr Kinderlein kommet
TTITLE13=Kelly Family - Little Drummer Boy
EXTD=
EXTT0=
EXTT1=
EXTT2=
EXTT3=
EXTT4=
EXTT5=
EXTT6=
EXTT7=
EXTT8=
EXTT9=
EXTT10=
EXTT11=
EXTT12=
EXTT13=
PLAYORDER=
